<svg viewBox="0 0 200 155" fill="none" xmlns="http://www.w3.org/2000/svg">
                            <path fill-rule="evenodd" clip-rule="evenodd" d="M19.7 15.326C20.3544 15.326 20.5721 15.0353 20.5721 14.38V13.2167C20.5721 11.7654 20.3544 10.6729 19.8465 9.87381C19.1916 8.92824 18.1018 8.56673 16.5009 8.56673H15.8482C14.5385 8.56673 13.4482 8.85744 12.7934 9.58311C12.0677 10.3822 11.7035 11.6189 11.7035 13.5079V15.326H19.7ZM19.265 27.9756C21.5889 27.9756 25.1518 27.465 26.9677 27.0296C27.3319 26.9561 27.8425 26.8097 28.3482 26.8097C29.0031 26.8097 29.5119 27.3203 29.6584 28.0464L30.2398 31.6831C30.3841 32.4083 30.531 33.1344 30.531 33.6451C30.531 34.5884 30.1668 35.0995 28.6394 35.6048C25.7336 36.6243 21.227 37.3495 17.6637 37.3495H16.2832C10.5403 37.3495 6.10708 36.1158 3.63628 33.6451C0.728318 30.7371 0 27.0296 0 21.1402V17.0707C0 9.8008 1.89159 5.87603 4.36239 3.69594C6.76239 1.58664 10.5403 0.426025 15.7748 0.426025H16.7916C22.0261 0.426025 25.8071 1.87735 27.769 4.0601C30.3133 6.89505 31.2566 10.8194 31.2566 17.0707V20.8517C31.2566 22.3769 30.6044 22.8849 29.15 22.8849H11.7035V23.4663C11.7035 26.8827 13.3752 27.9756 18.4628 27.9756H19.265Z" fill="currentColor"></path>
                            <path fill-rule="evenodd" clip-rule="evenodd" d="M54.5637 0.424805C58.8522 0.424805 61.9049 1.44162 63.7934 3.40622C65.7562 5.43941 66.4845 8.13056 66.4845 12.9983V34.5898C66.4845 35.9704 65.9761 36.6965 64.0115 36.6965H57.3248C55.3629 36.6965 54.8544 35.9704 54.8544 34.5898V14.0177C54.8544 12.346 54.6367 11.327 54.0553 10.6744C53.4735 10.0195 52.3102 9.72834 50.8562 9.72834H50.4186C48.9673 9.72834 47.804 10.0195 47.2221 10.6744C46.6407 11.327 46.4235 12.2726 46.4235 14.0177V34.5898C46.4235 35.9704 45.9124 36.6965 43.95 36.6965H37.2633C35.3013 36.6965 34.7903 35.9704 34.7903 34.5898V3.11595C34.7903 1.65888 35.3721 1.07967 37.2633 1.07967H40.6801C42.3518 1.07967 42.9332 1.36817 43.3682 2.7518L43.8062 4.13233H44.0235C46.35 1.65888 49.6929 0.424805 53.9819 0.424805H54.5637Z" fill="currentColor"></path>
                            <path fill-rule="evenodd" clip-rule="evenodd" d="M89.7301 15.326C90.3849 15.326 90.6026 15.0353 90.6026 14.38V13.2167C90.6026 11.7654 90.3849 10.6729 89.8739 9.87381C89.2221 8.92824 88.1292 8.56673 86.5336 8.56673H85.8787C84.5686 8.56673 83.4787 8.85744 82.8239 9.58311C82.0978 10.3822 81.7341 11.6189 81.7341 13.5079V15.326H89.7301ZM89.2951 27.9756C91.619 27.9756 95.1823 27.465 96.9982 27.0296C97.3619 26.9561 97.8703 26.8097 98.3814 26.8097C99.0336 26.8097 99.542 27.3203 99.6885 28.0464L100.27 31.6831C100.417 32.4083 100.561 33.1344 100.561 33.6451C100.561 34.5884 100.197 35.0995 98.6695 35.6048C95.7641 36.6243 91.2575 37.3495 87.6942 37.3495H86.3133C80.5703 37.3495 76.1372 36.1158 73.6668 33.6451C70.7584 30.7371 70.0305 27.0296 70.0305 21.1402V17.0707C70.0305 9.8008 71.9217 5.87603 74.3925 3.69594C76.7925 1.58664 80.5703 0.426025 85.8053 0.426025H86.8217C92.0566 0.426025 95.8376 1.87735 97.7995 4.0601C100.343 6.89505 101.287 10.8194 101.287 17.0707V20.8517C101.287 22.3769 100.635 22.8849 99.1801 22.8849H81.7341V23.4663C81.7341 26.8827 83.4053 27.9756 88.496 27.9756H89.2951Z" fill="currentColor"></path>
                            <path fill-rule="evenodd" clip-rule="evenodd" d="M114.183 5.00393C115.928 2.16941 118.325 1.07959 122.324 1.07959H125.232C126.76 1.07959 127.341 1.44375 127.341 3.11499V8.42074C127.341 10.019 126.83 10.4561 125.379 10.4561H123.196C120.435 10.4561 118.69 10.965 117.673 11.9836C116.727 12.9269 116.437 14.5991 116.437 16.9982V34.5893C116.437 35.9699 115.928 36.6955 113.963 36.6955H107.277C105.315 36.6955 104.806 35.9699 104.806 34.5893V3.11499C104.806 1.66101 105.388 1.07959 107.277 1.07959H110.767C112.439 1.07959 113.02 1.44375 113.384 2.75083L113.963 5.00393H114.183Z" fill="currentColor"></path>
                            <path fill-rule="evenodd" clip-rule="evenodd" d="M146.263 24.2671C147.934 24.2671 149.1 23.8299 149.679 23.2507C150.551 22.3781 150.916 21.2149 150.916 18.3065V15.472C150.916 12.5635 150.551 11.4003 149.679 10.5277C149.1 9.94629 147.934 9.51133 146.263 9.51133H145.754C144.082 9.51133 142.919 9.94629 142.338 10.5277C141.468 11.4003 141.104 12.5635 141.104 15.472V18.3065C141.104 21.2149 141.468 22.3781 142.338 23.2507C142.919 23.8299 144.082 24.2671 145.754 24.2671H146.263ZM183.771 49.7073C183.189 50.8706 182.607 51.2348 181.735 51.2348C181.155 51.2348 180.427 51.0175 179.628 50.6534L175.921 49.0525C174.611 48.4733 174.032 47.9627 174.032 47.2366C174.032 46.9458 174.103 46.5821 174.394 46.0003C175.921 42.9481 177.957 39.0233 178.609 37.2781C176.647 36.5525 175.266 35.3892 173.885 32.3339C171.632 27.4658 168.724 16.9967 166.835 8.85647H164.508C163.492 8.85647 162.619 9.00292 161.817 9.29098C162.182 10.8184 162.399 12.3463 162.399 14.4525V19.3233C162.399 24.6312 161.165 27.9012 158.113 29.9366C161.817 31.8994 164.217 35.2423 164.217 39.0233V39.5312C164.217 46.2202 159.347 50.2892 147.135 50.2892H145.754C141.104 50.2892 135.287 49.1259 131.506 47.672C130.126 47.1631 129.691 46.2905 130.055 44.91L131.363 40.26C131.726 38.8764 132.379 38.2945 133.98 38.8051C137.758 40.0423 142.555 40.9118 145.39 40.9118H146.409C150.916 40.9118 152.731 39.5312 152.731 37.2047V36.9874C152.731 35.5335 152.079 34.3697 150.551 33.2065C149.679 33.2799 148.298 33.3534 146.991 33.3534H145.028C134.923 33.3534 129.617 29.0644 129.617 19.3233V14.4525C129.617 4.71443 134.195 0.425049 145.536 0.425049H146.553C151.206 0.425049 154.694 1.00691 157.24 2.46089C159.056 1.58832 161.312 1.08036 164 1.08036H174.467C176.065 1.08036 176.72 1.36841 177.011 2.82239C178.465 10.6746 180.645 20.2693 182.681 27.1755H183.044C185.442 20.56 187.695 9.29098 188.714 3.03965C188.932 1.51487 189.587 1.08036 191.038 1.08036H197.727C199.399 1.08036 199.907 1.65912 199.69 3.26C197.801 16.2711 192.057 34.2994 183.771 49.7073Z" fill="currentColor"></path>
                            <path fill-rule="evenodd" clip-rule="evenodd" d="M11.6552 96.0894C8.23886 96.0894 4.02338 95.3611 1.04196 94.2717C0.389306 94.0536 0.0251465 93.8363 0.0251465 93.2549C0.0251465 92.8169 0.168952 92.2355 0.460102 91.0748L0.823819 89.7651C1.04196 88.9655 1.33267 88.7483 1.76984 88.7483C2.3517 88.7483 2.85966 89.1124 4.38444 89.5478C6.49373 90.2023 9.11143 90.5642 11.7995 90.5642C16.4526 90.5642 18.4145 88.9655 18.4145 85.5496V85.1877C18.4145 81.8421 16.8167 80.8253 13.2535 80.097L9.83709 79.3713C2.42249 77.7709 0.606562 75.5908 0.606562 69.5593V69.0487C0.606562 62.289 4.53134 59.1633 12.8185 59.1633C16.4526 59.1633 19.6513 59.6713 22.0486 60.4001C22.7774 60.6173 22.9212 60.908 22.9212 61.3434C22.9212 61.7071 22.7039 62.4332 22.4867 63.4523L22.122 64.8328C21.9048 65.6319 21.7579 65.8523 21.2499 65.8523C20.8853 65.8523 20.3039 65.7054 19.7955 65.5589C18.1973 65.1239 15.4362 64.7593 13.2535 64.7593C8.31187 64.7593 6.85789 65.9961 6.85789 69.0487V69.4129C6.85789 71.9567 8.09196 72.9735 12.3101 73.9195L15.653 74.6474C22.122 76.0284 24.6659 78.5695 24.6659 84.897V85.4762C24.6659 92.3824 20.2331 96.0894 11.6552 96.0894Z" fill="currentColor"></path>
                            <path fill-rule="evenodd" clip-rule="evenodd" d="M41.2147 96.0894H38.9611C31.4731 96.0894 28.2036 92.1624 28.2036 85.6226V84.4593C28.2036 80.6054 29.3669 77.6262 31.693 75.8815C33.7996 74.2102 36.8523 73.5549 42.8859 73.5549H44.631C46.085 73.5549 47.7563 73.6279 49.0664 73.7722V70.72C49.0664 65.9961 46.8107 64.7593 41.8691 64.7593C39.543 64.7593 36.781 65.124 33.9465 65.8523C33.074 66.0695 32.7098 66.1403 32.4191 66.1403C31.9111 66.1403 31.6195 65.8523 31.4731 65.1239L31.1824 63.743C30.9651 62.6532 30.8917 62.1447 30.8917 61.854C30.8917 61.3434 31.1824 60.9815 31.9111 60.7642C34.5992 59.889 38.7439 59.1633 42.451 59.1633C51.681 59.1633 55.7527 62.289 55.7527 71.5195V94.4182C55.7527 95.1439 55.462 95.4346 54.5899 95.4346H51.7545C50.8824 95.4346 50.5178 95.1439 50.374 94.4182L50.0833 92.3089H49.9364C48.5558 94.8531 45.7209 96.0894 41.2147 96.0894ZM41.9403 79.0076C36.8523 79.0076 34.9629 80.2439 34.9629 84.5328V85.5496C34.9629 89.1832 36.3439 90.6377 40.051 90.6377H42.3045C46.7399 90.6377 49.0664 89.039 49.0664 84.677V79.2248C47.9032 79.081 46.4492 79.0076 45.139 79.0076H41.9403Z" fill="currentColor"></path>
                            <path fill-rule="evenodd" clip-rule="evenodd" d="M75.186 95.4348H71.2613C69.5896 95.4348 68.8612 94.9268 68.1351 93.1082C64.502 84.0224 61.0117 72.683 58.4679 62.7976C58.321 62.2162 58.0303 61.1994 58.0303 60.6175C58.0303 60.0361 58.321 59.8188 59.1201 59.8188H63.1205C64.0639 59.8188 64.502 60.1069 64.7192 61.0525C67.0458 70.356 69.7338 79.5158 73.0059 89.0396H73.5148C76.7843 79.5158 79.4745 70.2122 81.7281 61.0525C81.9453 60.1069 82.3834 59.8188 83.3263 59.8188H87.3245C88.1236 59.8188 88.4143 60.0361 88.4143 60.6175C88.4143 61.1994 88.1236 62.2162 87.9794 62.7976C85.4356 72.683 81.9453 84.0224 78.3117 93.1082C77.586 94.9268 76.8573 95.4348 75.186 95.4348Z" fill="currentColor"></path>
                            <path fill-rule="evenodd" clip-rule="evenodd" d="M102.424 95.4349H100.314C94.5713 95.4349 91.9563 93.3991 91.9563 87.0774V61.126C91.9563 60.107 92.3912 59.819 93.4107 59.819H97.1886C98.2811 59.819 98.6426 60.107 98.6426 61.126V87.0774C98.6426 89.257 99.4443 89.9123 101.407 89.9123H102.567C103.513 89.9123 103.731 90.1296 103.731 91.0017V94.1278C103.731 95.0738 103.513 95.4349 102.424 95.4349ZM95.5169 55.1654H95.1554C92.8284 55.1654 90.9373 53.9287 90.9373 50.9499V50.4415C90.9373 47.4601 92.8284 46.2234 95.1554 46.2234H95.5169C97.9165 46.2234 99.6589 47.4601 99.6589 50.4415V50.9499C99.6589 53.9287 97.9165 55.1654 95.5169 55.1654Z" fill="currentColor"></path>
                            <path fill-rule="evenodd" clip-rule="evenodd" d="M134.302 95.4348H130.521C129.502 95.4348 129.067 95.1441 129.067 94.1277V73.191C129.067 67.0866 126.958 64.6162 121.435 64.6162C116.638 64.6162 113.95 66.4317 113.95 72.1746V94.1277C113.95 95.1441 113.583 95.4348 112.493 95.4348H108.713C107.696 95.4348 107.261 95.1441 107.261 94.1277V60.9087C107.261 60.0361 107.625 59.8189 108.425 59.8189H110.968C111.838 59.8189 112.202 60.0361 112.349 60.9087L112.713 63.2353H112.857C114.893 60.7622 118.236 59.1636 123.177 59.1636C131.467 59.1636 135.756 63.0149 135.756 73.4822V94.1277C135.756 95.1441 135.392 95.4348 134.302 95.4348Z" fill="currentColor"></path>
                            <path fill-rule="evenodd" clip-rule="evenodd" d="M154.921 109.029C149.833 109.029 144.31 107.939 140.603 106.412C139.8 106.048 139.51 105.756 139.51 105.248C139.51 104.958 139.654 104.52 139.874 103.721L140.603 101.614C140.746 101.104 141.111 100.959 141.328 100.959C141.619 100.959 141.91 101.104 142.345 101.25C145.691 102.558 150.341 103.577 154.41 103.577C159.574 103.577 162.697 101.905 162.697 97.179V96.5971C162.697 93.4007 161.245 90.8568 158.191 89.5467C156.957 89.767 155.502 89.9108 153.684 89.9108C143.364 89.9108 139.29 85.2573 139.29 75.2993V73.9914C139.29 63.09 144.016 59.1626 153.684 59.1626C157.755 59.1626 161.245 59.744 163.863 61.4891C165.097 60.3993 166.551 59.8175 168.804 59.8175H171.351C172.294 59.8175 172.584 60.0347 172.584 60.9807V63.8887C172.584 64.7613 172.438 65.052 171.421 65.052H169.385C168.442 65.052 167.494 65.1962 166.842 65.4874C167.714 67.74 168.078 70.3582 168.078 73.9914V75.2993C168.078 82.3524 166.187 85.6223 163.425 87.0763C167.494 89.2555 169.459 92.963 169.459 97.1082V97.9068C169.459 105.248 164.515 109.029 154.921 109.029ZM153.684 64.4706C147.723 64.4706 146.125 67.2321 146.125 73.7011V75.2993C146.125 81.6237 147.65 84.679 153.684 84.679C159.791 84.679 161.245 81.6237 161.245 75.2281V73.7011C161.245 67.2321 159.427 64.4706 153.684 64.4706Z" fill="currentColor"></path>
                            <path fill-rule="evenodd" clip-rule="evenodd" d="M19.1487 154.191H15.7323C11.9513 154.191 9.26326 153.248 7.59202 151.283C5.99379 149.394 5.19202 146.633 5.19202 142.925V122.717H0.758836C0.247774 122.717 0.0305176 122.57 0.0305176 121.917V120.464C0.0305176 119.809 0.247774 119.591 0.758836 119.518L5.19202 118.575V110.361C5.19202 109.85 5.55618 109.486 6.06459 109.486H9.1168C9.62742 109.486 9.91592 109.85 9.91592 110.361V118.575H18.423C18.9314 118.575 19.1487 118.792 19.1487 119.3V121.991C19.1487 122.426 18.9314 122.717 18.423 122.717H9.91592V142.344C9.91592 144.961 10.1358 146.994 11.2261 148.304C12.1717 149.541 13.8433 150.12 16.5314 150.12H19.1487C19.5863 150.12 20.0212 150.12 20.0212 150.921V153.392C20.0212 153.9 19.8035 154.191 19.1487 154.191Z" fill="currentColor"></path>
                            <path fill-rule="evenodd" clip-rule="evenodd" d="M27.052 154.191H24.7255C23.8529 154.191 23.5618 153.9 23.5618 153.248V119.374C23.5618 118.863 23.8529 118.575 24.4343 118.575H26.5436C27.1985 118.575 27.3427 118.863 27.4157 119.374L27.7069 123.152H27.8511C29.1613 120.755 31.7759 118.575 36.2848 118.575H38.1742C38.8994 118.575 39.1193 118.792 39.1193 119.447V121.918C39.1193 122.5 38.8286 122.717 38.1742 122.717H36.2113C32.5042 122.717 30.7591 123.807 29.5958 125.699C28.6498 127.223 28.2888 129.186 28.2888 131.439V153.248C28.2888 153.827 27.9246 154.191 27.052 154.191Z" fill="currentColor"></path>
                            <path fill-rule="evenodd" clip-rule="evenodd" d="M54.9419 154.844C51.0171 154.844 48.0357 153.972 45.9291 152.23C43.6755 150.34 42.6565 147.576 42.6565 143.942V119.736C42.6565 119.082 43.0941 118.575 43.6755 118.575H46.3636C47.0923 118.575 47.383 119.082 47.383 119.592V143.361C47.383 146.269 47.891 147.794 49.2724 149.03C50.7264 150.34 52.6884 150.773 56.1052 150.773C61.2662 150.773 64.172 148.813 64.172 143.652V119.519C64.172 118.937 64.5366 118.575 65.0445 118.575H68.0968C68.6813 118.575 68.8985 118.937 68.8985 119.519V153.393C68.8985 153.901 68.6813 154.192 68.1702 154.192H65.9906C65.4087 154.192 65.1914 153.972 65.118 153.393L64.7538 150.702H64.6096C62.7207 153.537 59.595 154.844 54.9419 154.844Z" fill="currentColor"></path>
                            <path fill-rule="evenodd" clip-rule="evenodd" d="M82.9114 154.844C79.2038 154.844 75.2791 154.048 73.026 153.102C72.2976 152.811 72.0065 152.52 72.1538 151.866L72.7353 149.759C72.8923 149.182 73.1622 148.907 73.5711 148.907C73.7308 148.907 73.9114 148.949 74.1158 149.03C76.9507 150.12 79.8591 150.773 82.9114 150.773C86.4012 150.773 87.926 150.267 89.0892 149.321C90.2525 148.375 90.9074 146.848 90.9074 144.668V144.233C90.9074 141.689 90.4698 140.309 88.9454 139.363C87.8525 138.708 86.2543 138.343 83.8547 137.836L81.8215 137.474C79.4211 137.039 77.5326 136.454 76.1521 135.655C73.4609 134.128 72.4445 131.513 72.4445 128.097V127.368C72.4445 120.899 76.4423 117.921 84.0746 117.921C87.1999 117.921 89.8884 118.285 92.2149 118.937C93.0875 119.155 93.4512 119.592 93.3047 120.245L92.8698 122.136C92.7025 122.81 92.4034 123.179 91.8087 123.179C91.6304 123.179 91.4291 123.147 91.1985 123.079C89.0892 122.5 86.3277 121.992 84.0012 121.992C80.8755 121.992 79.2038 122.571 78.2583 123.443C77.4591 124.172 76.8038 125.553 76.8038 127.224V127.733C76.8038 129.26 77.0945 130.421 77.9671 131.296C78.9131 132.239 80.2207 132.821 83.637 133.475L85.5286 133.839C89.0892 134.566 91.9972 135.509 93.4512 137.327C94.5414 138.781 95.2671 140.89 95.2671 143.725V144.451C95.2671 146.995 94.5414 149.612 93.2339 151.213C91.2693 153.684 87.8525 154.844 82.9114 154.844Z" fill="currentColor"></path>
                            <path fill-rule="evenodd" clip-rule="evenodd" d="M115.354 154.191H111.938C108.159 154.191 105.469 153.248 103.797 151.283C102.196 149.394 101.397 146.633 101.397 142.925V122.717H96.9642C96.4562 122.717 96.2358 122.57 96.2358 121.917V120.464C96.2358 119.809 96.4562 119.591 96.9642 119.518L101.397 118.575V110.361C101.397 109.85 101.761 109.486 102.273 109.486H105.322C105.831 109.486 106.124 109.85 106.124 110.361V118.575H114.626C115.137 118.575 115.354 118.792 115.354 119.3V121.991C115.354 122.426 115.137 122.717 114.626 122.717H106.124V142.344C106.124 144.961 106.342 146.994 107.431 148.304C108.377 149.541 110.049 150.12 112.737 150.12H115.354C115.792 150.12 116.227 150.12 116.227 150.921V153.392C116.227 153.9 116.009 154.191 115.354 154.191Z" fill="currentColor"></path>
                        </svg>